<svg id="Layer_1" data-name="Layer 1" xmlns="http://www.w3.org/2000/svg" viewBox="0 0 388.15 215.65"><defs><style>.cls-1{fill:#fff;}</style></defs><path class="cls-1" d="M144.63,199.75a64.69,64.69,0,1,1,0-112.12q1.76-4.39,3.77-8.63a150.07,150.07,0,0,1,17.83-28.7,107.82,107.82,0,1,0,0,186.78,108.47,108.47,0,0,0,32.35-28.69s0,0,0,0h0A107,107,0,0,0,218,165.25H173.33A64.88,64.88,0,0,1,144.63,199.75Z" transform="translate(-4.5 -35.86)"/><path class="cls-1" d="M390.5,122.13A107.82,107.82,0,0,0,198.58,79h0a107.27,107.27,0,0,0-19.39,43.13h44.66a64.71,64.71,0,0,1,122,0,64.71,64.71,0,0,1-93.33,77.6c-1.16,2.93-2.42,5.82-3.77,8.64a149.84,149.84,0,0,1-17.83,28.71,107.88,107.88,0,0,0,118.62-7.14v21.57h43.12V143.69A108.43,108.43,0,0,0,390.5,122.13Z" transform="translate(-4.5 -35.86)"/></svg>